<svg width="65" height="65" viewBox="0 0 65 65" fill="none" xmlns="http://www.w3.org/2000/svg">
<rect x="1" y="1" width="63" height="63" rx="4" stroke="#422A3C" stroke-width="2"/>
<path d="M28.125 45.0837V34.8753C28.125 32.4591 30.0838 30.5003 32.5 30.5003C34.9162 30.5003 36.875 32.4591 36.875 34.8753V45.0837M45.625 42.167V28.5707C45.625 27.0278 44.9126 25.5713 43.6947 24.624L35.5697 18.3045C33.7642 16.9002 31.2359 16.9002 29.4303 18.3045L21.3053 24.624C20.0874 25.5713 19.375 27.0278 19.375 28.5707V42.167C19.375 42.9405 19.6823 43.6824 20.2293 44.2294C20.7763 44.7764 21.5181 45.0837 22.2917 45.0837H42.7083C43.4819 45.0837 44.2237 44.7764 44.7707 44.2294C45.3177 43.6824 45.625 42.9405 45.625 42.167Z" stroke="#422A3C" stroke-width="2" stroke-linecap="round" stroke-linejoin="round"/>
</svg>
