<svg width="23" height="23" viewBox="0 0 23 23" fill="none" xmlns="http://www.w3.org/2000/svg">
<g clip-path="url(#clip0_1_335)">
<path d="M10.5415 3.8335H3.83317C3.32484 3.8335 2.83733 4.03543 2.47788 4.39487C2.11844 4.75432 1.9165 5.24183 1.9165 5.75016V19.1668C1.9165 19.6752 2.11844 20.1627 2.47788 20.5221C2.83733 20.8816 3.32484 21.0835 3.83317 21.0835H17.2498C17.7582 21.0835 18.2457 20.8816 18.6051 20.5221C18.9646 20.1627 19.1665 19.6752 19.1665 19.1668V12.4585" stroke="#422A3C" stroke-width="2" stroke-linecap="round" stroke-linejoin="round"/>
<path d="M17.729 2.39573C18.1103 2.01448 18.6273 1.80029 19.1665 1.80029C19.7057 1.80029 20.2228 2.01448 20.604 2.39573C20.9853 2.77697 21.1994 3.29406 21.1994 3.83322C21.1994 4.37239 20.9853 4.88948 20.604 5.27073L11.4998 14.3749L7.6665 15.3332L8.62484 11.4999L17.729 2.39573Z" stroke="#422A3C" stroke-width="2" stroke-linecap="round" stroke-linejoin="round"/>
</g>
<defs>
<clipPath id="clip0_1_335">
<rect width="23" height="23" rx="5" fill="white"/>
</clipPath>
</defs>
</svg>
