<svg width="26" height="26" viewBox="0 0 26 26" fill="none" xmlns="http://www.w3.org/2000/svg">
<g clip-path="url(#clip0_1_1098)">
<path d="M23.5624 22.4135L17.4264 16.2774C18.9008 14.5073 19.6361 12.2368 19.4792 9.93838C19.3223 7.63994 18.2853 5.49048 16.5839 3.93714C14.8826 2.38379 12.6479 1.54617 10.3447 1.5985C8.04151 1.65084 5.84716 2.58912 4.21814 4.21814C2.58912 5.84716 1.65084 8.04151 1.5985 10.3447C1.54617 12.6479 2.38379 14.8826 3.93714 16.5839C5.49048 18.2853 7.63994 19.3223 9.93838 19.4792C12.2368 19.6361 14.5073 18.9008 16.2774 17.4264L22.4135 23.5624L23.5624 22.4135ZM3.24995 10.5624C3.24995 9.11617 3.67882 7.70238 4.48233 6.49984C5.28583 5.29731 6.42789 4.36004 7.76408 3.80658C9.10026 3.25311 10.5706 3.1083 11.989 3.39046C13.4075 3.67261 14.7105 4.36906 15.7332 5.39173C16.7558 6.4144 17.4523 7.71736 17.7344 9.13585C18.0166 10.5543 17.8718 12.0246 17.3183 13.3608C16.7649 14.697 15.8276 15.8391 14.6251 16.6426C13.4225 17.4461 12.0087 17.8749 10.5624 17.8749C8.62371 17.8728 6.765 17.1017 5.3941 15.7308C4.02321 14.3599 3.2521 12.5012 3.24995 10.5624Z" fill="white"/>
</g>
<defs>
<clipPath id="clip0_1_1098">
<rect width="26" height="26" fill="white"/>
</clipPath>
</defs>
</svg>
