<svg width="29" height="30" viewBox="0 0 29 30" fill="none" xmlns="http://www.w3.org/2000/svg">
<path d="M9.75 28.8324V18.6241C9.75 16.2079 11.7088 14.2491 14.125 14.2491C16.5412 14.2491 18.5 16.2079 18.5 18.6241V28.8324M27.25 25.9158V12.3195C27.25 10.7766 26.5376 9.32004 25.3197 8.37276L17.1947 2.05332C15.3892 0.649 12.8609 0.648999 11.0553 2.05332L2.9303 8.37276C1.71236 9.32004 1 10.7766 1 12.3195V25.9158C1 26.6893 1.30729 27.4312 1.85427 27.9782C2.40125 28.5251 3.14312 28.8324 3.91667 28.8324H24.3333C25.1069 28.8324 25.8487 28.5251 26.3957 27.9782C26.9427 27.4312 27.25 26.6893 27.25 25.9158Z" stroke="#422A3C" stroke-width="2" stroke-linecap="round" stroke-linejoin="round"/>
</svg>
