<svg width="27" height="27" viewBox="0 0 27 27" fill="none" xmlns="http://www.w3.org/2000/svg">
<path d="M19.6414 7.21875C18.8974 6.47474 19.4731 5.59862 20.242 6.31684C20.2939 6.36527 20.3449 6.41463 20.3952 6.46492C20.4455 6.51521 20.4949 6.56629 20.5433 6.61813C21.2615 7.38707 20.3854 7.96276 19.6414 7.21875ZM22.1414 4.7125C20.4949 3.06808 21.747 1.02432 23.4735 2.58459C23.6121 2.70983 23.7478 2.83874 23.8804 2.97126C24.0131 3.10378 24.1422 3.23932 24.2676 3.37774C25.8301 5.10222 23.7879 6.35692 22.1414 4.7125ZM25.8601 19.65V23.4C25.8616 23.7481 25.7902 24.0927 25.6508 24.4117C25.5113 24.7307 25.3068 25.017 25.0502 25.2523C24.7937 25.4877 24.4909 25.6669 24.1611 25.7784C23.8313 25.8899 23.4819 25.9313 23.1351 25.9C19.2887 25.4821 15.5939 24.1677 12.3476 22.0625C9.32743 20.1433 6.76682 17.5827 4.84765 14.5625C2.73512 11.3015 1.42045 7.58874 1.01015 3.725C0.978909 3.37933 1.01999 3.03095 1.13077 2.70203C1.24155 2.37311 1.41961 2.07086 1.6536 1.81453C1.8876 1.55819 2.1724 1.35339 2.48988 1.21315C2.80737 1.07292 3.15057 1.00033 3.49765 1H7.24765C7.85428 0.994029 8.44239 1.20885 8.90235 1.60442C9.36231 1.99998 9.66274 2.54931 9.74765 3.15C9.90592 4.35008 10.1995 5.52841 10.6226 6.6625C10.7908 7.1099 10.8272 7.59614 10.7275 8.0636C10.6278 8.53106 10.3962 8.96014 10.0601 9.3C9.12245 10.2377 8.90899 11.7008 9.68949 12.7729C10.9171 14.4591 12.4011 15.9431 14.0873 17.1707C15.1594 17.9512 16.6225 17.7377 17.5601 16.8C17.9 16.4639 18.3291 16.2323 18.7965 16.1326C19.264 16.0329 19.7502 16.0693 20.1976 16.2375C21.3317 16.6607 22.5101 16.9542 23.7101 17.1125C24.3174 17.1982 24.8719 17.504 25.2683 17.9719C25.6647 18.4397 25.8754 19.037 25.8601 19.65Z" stroke="#422A3C" stroke-width="2" stroke-linecap="round" stroke-linejoin="round"/>
</svg>
