<svg width="46" height="40" viewBox="0 0 46 40" fill="none" xmlns="http://www.w3.org/2000/svg">
<path d="M45.184 27.776C45.184 19.9253 40.4906 10.6667 31.104 0L25.088 3.712C29.5253 10.5387 32 15.744 32.512 19.328L24.96 23.936C24.96 26.9227 25.6853 29.8667 27.136 32.768C28.5013 35.6693 29.9093 37.9307 31.36 39.552C36.1386 39.552 39.936 38.272 42.752 35.712C44.3733 34.2613 45.184 31.616 45.184 27.776ZM20.224 27.776C20.224 19.9253 15.5306 10.6667 6.14396 0L0.12796 3.712C4.56529 10.5387 7.03996 15.744 7.55196 19.328L-4.19617e-05 23.936C-4.19617e-05 26.9227 0.725291 29.8667 2.17596 32.768C3.54129 35.6693 4.94929 37.9307 6.39996 39.552C11.1786 39.552 14.976 38.272 17.792 35.712C19.4133 34.2613 20.224 31.616 20.224 27.776Z" fill="white"/>
</svg>
