<svg width="250" height="55" viewBox="0 0 250 55" fill="none" xmlns="http://www.w3.org/2000/svg">
<rect x="1" y="1" width="53" height="53" stroke="#ECBFD3" stroke-width="2"/>
<path d="M31.1836 28.375H28.5469V36.25H25.0312V28.375H22.1484V25.1406H25.0312V22.6445C25.0312 19.832 26.7188 18.25 29.2852 18.25C30.5156 18.25 31.8164 18.4961 31.8164 18.4961V21.2734H30.375C28.9688 21.2734 28.5469 22.1172 28.5469 23.0312V25.1406H31.6758L31.1836 28.375Z" fill="white"/>
<rect x="66" y="1" width="53" height="53" stroke="#ECBFD3" stroke-width="2"/>
<path d="M100.137 23.5938C100.137 23.7695 100.137 23.9102 100.137 24.0859C100.137 28.9727 96.4453 34.5625 89.6602 34.5625C87.5508 34.5625 85.6172 33.9648 84 32.9102C84.2812 32.9453 84.5625 32.9805 84.8789 32.9805C86.6016 32.9805 88.1836 32.3828 89.4492 31.3984C87.832 31.3633 86.4609 30.3086 86.0039 28.832C86.25 28.8672 86.4609 28.9023 86.707 28.9023C87.0234 28.9023 87.375 28.832 87.6562 28.7617C85.9688 28.4102 84.7031 26.9336 84.7031 25.1406V25.1055C85.1953 25.3867 85.793 25.5273 86.3906 25.5625C85.3711 24.8945 84.7383 23.7695 84.7383 22.5039C84.7383 21.8008 84.9141 21.168 85.2305 20.6406C87.0586 22.8555 89.8008 24.332 92.8594 24.5078C92.7891 24.2266 92.7539 23.9453 92.7539 23.6641C92.7539 21.625 94.4062 19.9727 96.4453 19.9727C97.5 19.9727 98.4492 20.3945 99.1523 21.1328C99.9609 20.957 100.77 20.6406 101.473 20.2188C101.191 21.0977 100.629 21.8008 99.8555 22.2578C100.594 22.1875 101.332 21.9766 101.965 21.6953C101.473 22.4336 100.84 23.0664 100.137 23.5938Z" fill="white"/>
<rect x="131" y="1" width="53" height="53" stroke="#ECBFD3" stroke-width="2"/>
<path d="M153.641 33H150.371V22.4883H153.641V33ZM151.988 21.082C150.969 21.082 150.125 20.2031 150.125 19.1484C150.125 18.1289 150.969 17.2852 151.988 17.2852C153.043 17.2852 153.887 18.1289 153.887 19.1484C153.887 20.2031 153.043 21.082 151.988 21.082ZM165.84 33H162.605V27.9023C162.605 26.6719 162.57 25.125 160.883 25.125C159.195 25.125 158.949 26.4258 158.949 27.7969V33H155.68V22.4883H158.809V23.9297H158.844C159.301 23.1211 160.355 22.2422 161.938 22.2422C165.242 22.2422 165.875 24.4219 165.875 27.2344V33H165.84Z" fill="white"/>
<rect x="196" y="1" width="53" height="53" stroke="#ECBFD3" stroke-width="2"/>
<path d="M222.5 22.6074C224.838 22.6074 226.768 24.5371 226.768 26.875C226.768 29.25 224.838 31.1426 222.5 31.1426C220.125 31.1426 218.232 29.25 218.232 26.875C218.232 24.5371 220.125 22.6074 222.5 22.6074ZM222.5 29.6582C224.021 29.6582 225.246 28.4336 225.246 26.875C225.246 25.3535 224.021 24.1289 222.5 24.1289C220.941 24.1289 219.717 25.3535 219.717 26.875C219.717 28.4336 220.979 29.6582 222.5 29.6582ZM227.918 22.459C227.918 23.0156 227.473 23.4609 226.916 23.4609C226.359 23.4609 225.914 23.0156 225.914 22.459C225.914 21.9023 226.359 21.457 226.916 21.457C227.473 21.457 227.918 21.9023 227.918 22.459ZM230.738 23.4609C230.812 24.834 230.812 28.9531 230.738 30.3262C230.664 31.6621 230.367 32.8125 229.402 33.8145C228.438 34.7793 227.25 35.0762 225.914 35.1504C224.541 35.2246 220.422 35.2246 219.049 35.1504C217.713 35.0762 216.562 34.7793 215.561 33.8145C214.596 32.8125 214.299 31.6621 214.225 30.3262C214.15 28.9531 214.15 24.834 214.225 23.4609C214.299 22.125 214.596 20.9375 215.561 19.9727C216.562 19.0078 217.713 18.7109 219.049 18.6367C220.422 18.5625 224.541 18.5625 225.914 18.6367C227.25 18.7109 228.438 19.0078 229.402 19.9727C230.367 20.9375 230.664 22.125 230.738 23.4609ZM228.957 31.7734C229.402 30.6973 229.291 28.0996 229.291 26.875C229.291 25.6875 229.402 23.0898 228.957 21.9766C228.66 21.2715 228.104 20.6777 227.398 20.418C226.285 19.9727 223.688 20.084 222.5 20.084C221.275 20.084 218.678 19.9727 217.602 20.418C216.859 20.7148 216.303 21.2715 216.006 21.9766C215.561 23.0898 215.672 25.6875 215.672 26.875C215.672 28.0996 215.561 30.6973 216.006 31.7734C216.303 32.5156 216.859 33.0723 217.602 33.3691C218.678 33.8145 221.275 33.7031 222.5 33.7031C223.688 33.7031 226.285 33.8145 227.398 33.3691C228.104 33.0723 228.697 32.5156 228.957 31.7734Z" fill="white"/>
</svg>
