<svg width="119" height="96" viewBox="0 0 119 96" fill="none" xmlns="http://www.w3.org/2000/svg">
<circle cx="48" cy="48" r="48" fill="#F7E5C1" fill-opacity="0.5"/>
<path d="M118.03 74.7505C117.25 66.6366 108.287 59.8489 100.538 63.9666L97.9011 55.39L104.161 30.562C105.76 24.1035 104.161 15.9986 99.4289 6.46077C98.2007 3.6543 93.8605 4.0904 93.1158 7.03037L88.0043 23.5369L82.9194 7.12234C82.1926 4.1527 77.8049 3.79967 76.6004 6.60317C71.8775 16.138 70.2903 24.237 71.8834 30.6895L78.1134 55.4108L75.4434 64.0734C62.1824 57.8968 52.7603 76.391 60.6279 86.4718C66.2408 94.8971 78.7661 92.5564 81.8929 83.2114C81.9968 83.4339 86.3815 68.826 86.5298 68.5056L89.2532 67.7254L93.7477 82.3095C94.6941 85.0952 96.2605 87.522 98.5864 89.3287C108.489 96.8076 120.219 85.5699 118.03 74.7505ZM76.1999 29.6067C74.9954 24.7147 76.0961 18.4402 79.4632 10.9671L85.6932 31.0485L80.6736 47.2465L76.1999 29.6067ZM84.1506 64.554C83.4297 64.7617 82.8601 65.3194 82.6376 66.0374L78.057 80.7965C76.28 87.3677 68.4272 89.7826 64.2502 83.87C60.9453 79.2123 61.6543 71.9529 66.4514 68.5768C68.4035 67.2092 70.9222 66.9541 73.1086 67.9004C74.8026 68.6065 76.5351 71.0303 78.324 69.0841C78.5436 68.8438 78.7067 68.5561 78.8017 68.2446L96.5898 10.8544C99.9599 18.3393 101.04 24.599 99.8531 29.4821L91.5465 62.4447L84.1506 64.554ZM111.764 83.7662V83.7602C107.961 89.391 100.07 87.6436 98.1592 81.3572L93.5371 66.4675C94.7416 66.0255 95.5782 64.9486 95.8125 63.6996L97.1802 68.1348C97.5391 69.3096 98.7851 69.9712 99.9599 69.6092C101.031 69.1702 101.779 68.1615 102.903 67.7818C111.877 64.4176 116.742 77.5006 111.764 83.7662Z" fill="#BA7894"/>
<path d="M59.6459 58.4902C62.4405 58.858 63.1376 54.6365 60.3579 54.0995C55.4392 53.0256 40.4071 53.6011 43.2847 65.8475L47.263 85.9941C47.4143 86.6587 46.8863 87.3143 46.2039 87.3113H41.1606C37.8409 87.3024 35.1531 84.6087 35.1531 81.289V16.7343C35.159 12.2932 38.7576 8.69763 43.1987 8.6917H60.0019C61.2301 8.6917 62.2269 7.6949 62.2269 6.4667C62.2269 5.2385 61.2301 4.2417 60.0019 4.2417H43.1987C36.3012 4.2506 30.712 9.83683 30.7061 16.7343V81.289C30.712 87.0681 35.3934 91.7495 41.1725 91.7584H46.2158C49.6809 91.791 52.3687 88.4624 51.6211 85.0834L47.6457 64.9367C45.7589 57.0988 56.077 58.1609 59.6459 58.4902Z" fill="#BA7894"/>
<path d="M60.0019 14.1475H41.7688C38.8644 14.1593 38.8555 18.5856 41.7688 18.5975H60.0019C62.9033 18.5856 62.9152 14.1593 60.0019 14.1475Z" fill="#BA7894"/>
<path d="M60.0019 24.0562H41.7688C38.8644 24.068 38.8555 28.4943 41.7688 28.5062H60.0019C62.9033 28.4943 62.9152 24.068 60.0019 24.0562Z" fill="#BA7894"/>
<path d="M60.0019 33.9648H41.7688C38.8644 33.9767 38.8555 38.403 41.7688 38.4148H60.0019C62.9033 38.403 62.9152 33.9767 60.0019 33.9648Z" fill="#BA7894"/>
<path d="M41.7688 43.8704C38.8644 43.8822 38.8555 48.3085 41.7688 48.3204H60.0019C62.9063 48.3085 62.9152 43.8822 60.0019 43.8704H41.7688Z" fill="#BA7894"/>
<path d="M88.0042 53.1206C84.7498 53.1354 84.7498 58.0838 88.0042 58.0987C91.2587 58.0838 91.2587 53.1354 88.0042 53.1206Z" fill="#BA7894"/>
</svg>
