<svg width="126" height="96" viewBox="0 0 126 96" fill="none" xmlns="http://www.w3.org/2000/svg">
<circle cx="48" cy="48" r="48" fill="#F7E5C1" fill-opacity="0.5"/>
<g clip-path="url(#clip0_1_1023)">
<path d="M61.3418 16.2024L75.2949 25.9644L57.7054 51.1054L43.7524 41.3433L61.3418 16.2024Z" fill="white"/>
<path d="M82.936 44.4202L95.8064 36.9892L108.125 58.3248L95.2545 65.7558L82.936 44.4202Z" fill="white"/>
<path d="M93.6326 23.298C94.2521 23.2894 94.8646 23.157 95.4329 22.9066C97.2061 22.1251 98.4711 20.509 98.804 18.6C99.1983 16.3388 97.3566 14.3118 95.068 14.488C94.2653 14.5498 93.529 14.8821 92.961 15.4029L87.4738 18.8877L87.1093 23.9388L93.6326 23.298Z" fill="white"/>
<path d="M95.068 14.488C94.2653 14.5498 93.529 14.8821 92.961 15.403L87.4738 18.8878L87.1093 23.9388L88.3034 23.8215L91.222 21.2737C91.5813 21.0517 91.9187 20.8018 92.2275 20.529C93.9966 18.9665 95.0349 16.787 95.1727 14.4814C95.1365 14.4831 95.1043 14.4852 95.068 14.488Z" fill="white"/>
<path d="M89.9983 19.5925C90.3027 19.4158 90.5908 19.211 90.8563 18.9765C92.5369 17.4922 93.3641 15.266 93.0607 13.0443C92.7013 10.4126 89.9587 8.82452 87.4975 9.82249C87.0919 9.98687 86.7247 10.2134 86.402 10.4859L81.1131 14.5568L78.9257 20.4856L87.0341 22.1802L89.9983 19.5925Z" fill="white"/>
<path d="M88.7522 9.53101C88.3329 9.55944 87.9135 9.65378 87.4974 9.82268C87.0918 9.98706 86.7246 10.2136 86.4019 10.486L81.113 14.557L78.9255 20.4857L80.1738 20.7465L83.4569 19.1027L84.1016 18.7975C85.157 18.2977 86.1025 17.5532 86.8353 16.6443C88.4622 14.6265 89.1344 12.0474 88.7522 9.53101Z" fill="white"/>
<path d="M82.3846 16.9017L83.054 16.5848C83.7825 16.2398 84.4236 15.7348 84.9296 15.1074C86.3371 13.3621 86.779 11.0285 86.107 8.88929C85.3111 6.35538 82.3409 5.25007 80.0819 6.64705C79.9005 6.75927 79.7305 6.88449 79.5722 7.02044L74.184 11.118L73.0944 19.5923L78.4185 18.8875L82.3846 16.9017Z" fill="white"/>
<path d="M82.0346 6.04053C81.3686 6.0699 80.7006 6.2646 80.082 6.64722C79.9007 6.75944 79.7306 6.88466 79.5723 7.02061L74.1842 11.1181L73.2246 18.5805L75.7205 18.4612L76.7232 18.6847L79.4497 16.1734C80.4383 15.2629 81.222 14.1211 81.7159 12.8714C82.5909 10.6579 82.6781 8.25942 82.0346 6.04053Z" fill="white"/>
<path d="M75.9485 15.811C75.9493 15.8112 75.9502 15.8114 75.951 15.8116L77.6637 14.234C78.3661 13.5871 78.9133 12.7898 79.2642 11.9018C80.2409 9.43153 79.918 6.63645 78.4037 4.45409C76.61 1.86877 72.8612 1.66579 70.7988 4.04228C70.7037 4.15187 70.616 4.26598 70.5322 4.38197L66.3682 9.09599L67.5013 16.2149L75.9485 15.811Z" fill="white"/>
<path d="M101.464 36.6625L96.1051 32.0852L86.4016 23.2981L82.9375 27.1817L94.8548 39.0028L97.1677 41.7659L100.254 42.9017L103.619 40.602L101.464 36.6625Z" fill="white"/>
<path d="M66.1603 10.2756L61.4101 13.4944L53.1595 20.4855L51.6388 24.055L53.1595 28.0172L56.7929 26.7787L60.7701 22.0271L68.8947 15.0121L69.3095 15.7302L66.1603 10.2756Z" fill="white"/>
<path d="M74.0194 10.7908C73.733 10.145 73.617 9.4317 73.6835 8.72803L73.7583 7.93737C73.9307 6.11729 73.5042 4.29947 72.5801 2.75073C71.9186 3.02583 71.3089 3.4544 70.7988 4.04226C70.7037 4.15185 70.616 4.26596 70.5322 4.38195L66.3682 9.09596L67.5013 16.2149L75.9483 15.8108C75.9491 15.811 75.95 15.8112 75.9508 15.8114C75.9508 15.8114 76.4552 15.4369 76.6816 15.1384C76.6818 15.1386 74.5875 12.0724 74.0194 10.7908Z" fill="white"/>
<path d="M92.08 79.4147C91.937 80.2726 91.7706 81.1274 91.5746 81.977L90.8666 85.0453C89.5775 90.631 84.6038 94.5877 78.8713 94.5877C71.7691 94.5877 66.14 88.5943 66.5849 81.5059L67.314 69.8876C67.5238 66.5468 67.3942 63.2018 66.9386 59.9011L63.3447 45.1488L60.8008 33.3141C60.4368 28.9797 60.5327 24.6054 61.0966 20.2646L61.4843 17.2801C61.6478 16.0215 61.6229 14.7454 61.4102 13.4942C61.2132 12.3352 60.8571 11.209 60.3521 10.1474L60.0864 9.58909C58.281 5.79359 61.0488 1.41211 65.252 1.41211C68.624 1.41211 71.2643 4.31414 70.9465 7.67129L70.8715 8.46195C70.7591 9.64916 70.954 10.8454 71.4373 11.9356C72.3903 14.0854 74.3654 15.6078 76.6869 15.9825L84.0293 17.1673C92.0668 18.4641 97.4197 26.1765 95.8233 34.16L92.9471 48.5442L92.08 79.4147Z" fill="white"/>
<path d="M92.141 77.2456L92.8808 50.9051C91.4949 49.5748 89.6221 48.7957 87.6618 48.7957C86.1676 48.7957 84.7208 49.2368 83.4771 50.0716C80.4786 52.0841 79.3347 55.954 80.7569 59.2731L84.6466 68.3505C86.2183 72.0183 88.8318 75.1013 92.141 77.2456Z" fill="white"/>
<path d="M117.564 74.4193L113.733 67.0505C113.513 66.6283 113.399 66.1594 113.399 65.6836V49.2847C113.399 47.7433 112.724 46.2792 111.552 45.2781L101.464 36.6624L97.1675 41.7658L100.509 45.7582C100.866 46.1851 101.02 46.7462 100.931 47.2957L99.1137 58.4557C98.9657 59.3646 98.1807 60.0321 97.2598 60.0321H95.3344C94.6746 60.0321 94.0632 59.686 93.7237 59.1202L90.8816 54.383C89.7774 52.5428 87.3574 52.0025 85.5756 53.1984C84.078 54.2035 83.5081 56.1321 84.2183 57.7896L88.1078 66.8671C89.6816 70.5398 92.5557 73.5023 96.1791 75.1864L98.0964 76.0776L102.498 82.0282C103.278 83.0824 104.688 83.4504 105.883 82.9115L116.237 78.2451C117.696 77.5876 118.303 75.839 117.564 74.4193Z" fill="white"/>
<path d="M84.9711 92.8467C77.8687 92.8467 72.2398 86.8534 72.6847 79.765L73.4138 68.1467C73.6236 64.8059 73.494 61.4608 73.0384 58.1602L71.5915 52.2209C71.4047 51.4545 71.4717 50.6486 71.7824 49.9237C72.8429 47.4495 75.2977 41.7224 75.2977 41.7224C76.6885 38.4766 75.5698 34.6924 72.6377 32.7245L72.3782 32.5503C71.162 31.734 69.7469 31.3026 68.2859 31.3026H68.2718C67.483 31.3034 66.8285 30.6882 66.7841 29.9006C66.5698 26.1152 66.7052 22.3069 67.1966 18.5239L67.5843 15.5394C67.7478 14.2808 67.7229 13.0047 67.5101 11.7535C67.3132 10.5945 66.9571 9.46828 66.4521 8.40666L66.1864 7.84836C65.1523 5.67428 65.6234 3.3089 67.0006 1.6839C66.4267 1.50031 65.8094 1.4039 65.1698 1.41294C60.9985 1.47168 58.3427 5.9234 60.1346 9.69066L60.352 10.1478C60.857 11.2095 61.2131 12.3357 61.4101 13.4946C61.6227 14.7459 61.6477 16.022 61.4843 17.2805L61.0966 20.265C60.5326 24.6058 60.4368 28.9802 60.8007 33.3146L63.3446 45.1492L66.9385 59.9015C67.3943 63.2022 67.5237 66.5473 67.3139 69.8881L66.5849 81.5064C66.1399 88.5946 71.769 94.5879 78.8712 94.5879C81.16 94.5879 83.3327 93.9543 85.1933 92.8409C85.121 92.842 85.0436 92.8467 84.9711 92.8467Z" fill="white"/>
<path d="M70.5389 35.8514L70.2793 35.677C68.5765 34.5341 66.2636 35.0504 65.2084 36.8091L62.2277 41.7769C61.9183 42.2926 61.361 42.608 60.7595 42.608H58.5986C57.7592 42.608 57.0437 41.9995 56.9089 41.1711L55.0775 29.9244C54.9826 29.3416 55.1458 28.7464 55.5249 28.2935L56.7927 26.7789L53.1593 20.4856L45.4369 27.0291C43.6384 28.553 42.6015 30.7909 42.6015 33.148V48.2598C42.6015 48.7356 42.4868 49.2045 42.2675 49.6266L38.3889 57.0854C37.676 58.4564 38.2616 60.1447 39.6705 60.7796L50.187 65.5195C51.3415 66.0397 52.7025 65.6846 53.4557 64.6667L57.9034 58.654L59.8785 57.736C63.4648 56.0692 66.3096 53.137 67.8672 49.502L71.8361 40.2395C72.5149 38.6549 71.9702 36.8119 70.5389 35.8514Z" fill="white"/>
<path d="M78.871 96C75.042 96 71.4896 94.463 68.8681 91.6718C66.2468 88.8809 64.9351 85.239 65.175 81.4176L65.3477 78.6664C65.3965 77.8879 66.0659 77.2972 66.8456 77.3453C67.624 77.394 68.2155 78.0647 68.1667 78.8432L67.994 81.5944C67.8035 84.6293 68.8451 87.5216 70.9269 89.738C73.0087 91.9547 75.83 93.1754 78.8708 93.1754C83.9753 93.1754 88.3421 89.7015 89.49 84.7276L90.1982 81.6593C90.3795 80.8732 90.5439 80.0398 90.6866 79.1827C90.8149 78.4133 91.5402 77.8928 92.3118 78.0216C93.0812 78.1497 93.6009 78.8772 93.4729 79.6466C93.3205 80.561 93.1448 81.4518 92.9503 82.2945L92.2421 85.3629C90.797 91.6261 85.2985 96 78.871 96Z" fill="#BA7894"/>
<path d="M67.1366 74.149C67.1068 74.149 67.0769 74.148 67.0467 74.1462C66.2683 74.0972 65.6769 73.4267 65.7256 72.6483L65.9045 69.7997C66.1068 66.5779 65.9838 63.3127 65.5394 60.0949C65.4328 59.3223 65.9725 58.6094 66.7453 58.5026C67.5181 58.3962 68.2308 58.9359 68.3375 59.7085C68.8077 63.1125 68.9376 66.5672 68.7235 69.9765L68.5446 72.8251C68.4976 73.5734 67.876 74.149 67.1366 74.149Z" fill="#BA7894"/>
<path d="M118.925 78.4469C118.415 78.4469 117.923 78.1697 117.671 77.6858L112.48 67.7021C112.157 67.0816 111.986 66.3836 111.986 65.6837V60.5782C111.986 59.7983 112.619 59.166 113.399 59.166C114.179 59.166 114.811 59.7983 114.811 60.5782V65.6837C114.811 65.9317 114.871 66.1789 114.986 66.3989L120.177 76.3828C120.537 77.0747 120.268 77.9274 119.576 78.2872C119.368 78.3957 119.145 78.4469 118.925 78.4469Z" fill="#BA7894"/>
<path d="M52.1643 67.8235C51.8724 67.8235 51.5781 67.7333 51.3254 67.5465C50.6984 67.0827 50.566 66.1983 51.03 65.5713L56.7681 57.814C56.9086 57.6242 57.0943 57.4728 57.3084 57.3732L59.2834 56.4553C61.6817 55.3405 63.7362 53.592 65.2245 51.3989C65.6627 50.7534 66.5409 50.5855 67.186 51.0233C67.8315 51.4612 67.9995 52.3395 67.5615 52.9848C65.7862 55.6008 63.3354 57.6863 60.4736 59.0165L58.8249 59.7828L53.3006 67.2509C53.0237 67.6254 52.5968 67.8235 52.1643 67.8235Z" fill="#BA7894"/>
<path d="M112.469 44.2044L97.5166 31.4337C97.5377 28.9431 96.9667 26.5007 95.8375 24.2668C95.8925 24.2444 95.9479 24.2229 96.0025 24.199C98.2127 23.2247 99.7801 21.2224 100.195 18.8427C100.458 17.3324 100.018 15.8151 98.9872 14.6804C97.9561 13.5459 96.4887 12.9633 94.9593 13.08C94.8015 13.0923 94.6452 13.1143 94.4899 13.1416C94.4803 13.0456 94.4728 12.9496 94.4596 12.8533C94.2289 11.1639 93.2503 9.70482 91.7748 8.85033C90.4381 8.07606 88.8739 7.90471 87.4161 8.35587C86.8857 6.78246 85.6968 5.55175 84.1356 4.97066C82.8848 4.505 81.5428 4.51235 80.3234 4.96614C80.107 4.51197 79.8564 4.07041 79.5641 3.64919C78.4588 2.0562 76.7145 1.08233 74.7784 0.977449C73.2195 0.892904 71.7231 1.38323 70.5357 2.34204C70.5329 2.33884 70.5302 2.33564 70.5274 2.33243C69.1788 0.850161 67.2559 0 65.2519 0C62.7907 0 60.5364 1.24238 59.2221 3.32325C57.9076 5.40412 57.7541 7.97343 58.8112 10.1959L59.0769 10.7542C59.4128 11.4607 59.6747 12.1992 59.8587 12.958L44.5242 25.9516C42.4051 27.7474 41.1896 30.3704 41.1896 33.148V48.2596C41.1896 48.5076 41.1292 48.7548 41.0147 48.9749L35.8231 58.9586C35.4633 59.6506 35.7326 60.5032 36.4246 60.863C36.6326 60.9713 36.8554 61.0225 37.0749 61.0225C37.585 61.0225 38.0774 60.7453 38.3292 60.2614L43.5205 50.2777C43.8433 49.6571 44.0141 48.9591 44.0141 48.2594V33.1478C44.0141 31.2019 44.8655 29.3643 46.3503 28.1063L60.1502 16.4131C60.1345 16.6419 60.1136 16.8703 60.0841 17.0983L59.6962 20.083C59.6444 20.4814 59.5979 20.8806 59.5538 21.2802L54.4423 27.387C53.7995 28.1551 53.5231 29.1627 53.6841 30.1512L55.5154 41.398C55.7627 42.9174 57.0597 44.0202 58.599 44.0202H60.7599C61.8509 44.0202 62.8775 43.4392 63.439 42.5033L66.4197 37.5355C66.7291 37.0201 67.2224 36.6641 67.809 36.5332C68.3957 36.4023 68.9935 36.5145 69.4925 36.8495L69.7524 37.0239C70.6187 37.6053 70.9494 38.7236 70.5383 39.6828L67.7809 46.1179C67.4738 46.8349 67.8059 47.6649 68.5228 47.9722C68.7041 48.05 68.8928 48.0867 69.0785 48.0867C69.6264 48.0867 70.1478 47.7658 70.3771 47.2303L73.1346 40.7953C74.08 38.5888 73.3195 36.0165 71.3263 34.6788L71.0667 34.5045C69.9186 33.7341 68.5433 33.4754 67.1938 33.7767C65.8443 34.078 64.7094 34.8969 63.998 36.0824L61.0173 41.0501C60.9634 41.1401 60.8648 41.1958 60.7601 41.1958H58.5992C58.4514 41.1958 58.3271 41.09 58.3032 40.944L56.4718 29.6973C56.4428 29.5193 56.4925 29.338 56.6083 29.1998L59.2092 26.0923C59.1283 28.5402 59.1889 30.9939 59.3938 33.4325C59.4589 34.2096 60.1409 34.7875 60.9192 34.7216C61.6963 34.6562 62.2736 33.9733 62.2083 33.1962C61.852 28.954 61.9493 24.6645 62.4973 20.4468L62.8852 17.4621C63.0669 16.0629 63.0392 14.6484 62.8029 13.2576C62.8001 13.241 62.7965 13.2247 62.7937 13.2081C62.7933 13.2066 62.7931 13.2053 62.7929 13.2038C62.5722 11.9354 62.181 10.703 61.6279 9.54082L61.3624 8.98252C60.7237 7.64015 60.8166 6.08821 61.6104 4.83151C62.4043 3.57482 63.7653 2.82445 65.2519 2.82445C66.4801 2.82445 67.6116 3.32476 68.4382 4.23329C69.2649 5.14182 69.6562 6.31548 69.5405 7.53828L69.4658 8.32894C69.3308 9.75416 69.5661 11.1993 70.1465 12.508C71.2975 15.1042 73.6584 16.9243 76.4621 17.3766L83.8046 18.5614C85.7469 18.8747 87.547 19.6049 89.1114 20.6888C89.1598 20.7279 89.2104 20.7637 89.2629 20.7957C90.4588 21.6502 91.5129 22.7133 92.3789 23.9612C92.4086 24.0041 92.4356 24.0485 92.4647 24.0918C92.4666 24.0947 92.4685 24.0975 92.4704 24.1003C94.4229 26.9897 95.1237 30.4561 94.4385 33.8827L91.5622 48.2669C91.4093 49.0318 91.9053 49.7757 92.6702 49.9286C92.7638 49.9473 92.8568 49.9563 92.9487 49.9563C93.6081 49.9563 94.1978 49.492 94.3321 48.8207L95.6626 42.1674L99.427 46.6649C99.521 46.7773 99.5615 46.9245 99.5379 47.069L97.7209 58.2289C97.684 58.4557 97.4904 58.6202 97.2609 58.6202H95.3353C95.1727 58.6202 95.0194 58.5336 94.9358 58.3939L92.0934 53.6569C91.3585 52.4319 90.1856 51.5856 88.7915 51.2744C87.3973 50.9631 85.9757 51.2301 84.7892 52.0264C82.7296 53.4087 81.944 56.0669 82.9209 58.3464L86.8104 67.4239C88.5239 71.4223 91.6398 74.6341 95.5846 76.4676L97.1758 77.207L102.7 84.6751C102.977 85.0494 103.404 85.2475 103.837 85.2475C104.128 85.2475 104.423 85.1573 104.675 84.9705C105.302 84.5067 105.435 83.6223 104.971 82.9953L99.2323 75.238C99.092 75.0482 98.9064 74.8968 98.6923 74.7972L96.7749 73.9062C93.4622 72.3665 90.8454 69.6693 89.4062 66.3112L85.5168 57.2338C85.0743 56.2014 85.4303 54.9974 86.363 54.3713C86.9004 54.0107 87.5446 53.8895 88.1757 54.0307C88.8073 54.1717 89.3383 54.5549 89.671 55.1098L92.5133 59.8468C93.1046 60.8323 94.1858 61.4445 95.335 61.4445H97.2605C98.8817 61.4445 100.248 60.2831 100.508 58.6827L102.325 47.5224C102.481 46.5673 102.214 45.5938 101.592 44.8518L96.3725 38.6154L97.1317 34.8189L110.634 46.3517C111.494 47.0855 111.987 48.1545 111.987 49.2845V54.5594C111.987 55.3393 112.619 55.9716 113.399 55.9716C114.179 55.9716 114.811 55.3393 114.811 54.5594V49.2848C114.811 47.3275 113.957 45.4756 112.469 44.2044ZM95.1764 15.896C95.8279 15.845 96.4565 16.0949 96.8967 16.5795C97.3371 17.0642 97.5252 17.7123 97.4126 18.3574C97.1603 19.8043 96.2073 21.0218 94.8635 21.6142C94.6799 21.6952 94.4904 21.7562 94.2971 21.8012C93.6823 20.9902 92.9988 20.2506 92.2576 19.5844C93.1831 18.626 93.8476 17.4696 94.2112 16.2186C94.5008 16.0352 94.8331 15.9226 95.1764 15.896ZM90.3596 11.2944C91.0749 11.7087 91.5492 12.4163 91.6613 13.2354C91.7456 13.8526 91.7178 14.4685 91.5916 15.0592C91.5846 15.0871 91.5796 15.1153 91.5743 15.1436C91.3344 16.1836 90.7812 17.1394 89.9657 17.8763C88.7133 17.112 87.3529 16.5234 85.9109 16.132C85.9502 16.0858 85.9909 16.041 86.0288 15.9939C87.1401 14.616 87.7502 12.9432 87.8191 11.2278C87.8874 11.1927 87.9569 11.16 88.0281 11.1312C88.7941 10.8207 89.6437 10.88 90.3596 11.2944ZM83.1505 7.61774C83.9255 7.90602 84.5118 8.52383 84.7598 9.3126C84.892 9.73345 84.9696 10.1631 84.9948 10.5925C84.9952 10.5968 84.9952 10.6009 84.9956 10.6053C85.0683 11.8981 84.6642 13.1868 83.83 14.2209C83.46 14.68 82.9827 15.056 82.4494 15.3084L82.1764 15.4375L78.9757 14.921C79.6621 14.2004 80.2121 13.3454 80.5774 12.421C81.1826 10.8902 81.3616 9.25969 81.1404 7.68289C81.7734 7.39913 82.4882 7.37126 83.1505 7.61774ZM72.7284 11.3632C72.3441 10.4962 72.1882 9.53912 72.2776 8.595L72.3524 7.80434C72.4486 6.7881 72.3221 5.77243 71.9976 4.82398C72.6849 4.11598 73.6313 3.74372 74.6257 3.79757C75.6847 3.855 76.6388 4.3877 77.2434 5.25895C77.6842 5.89426 77.9996 6.59152 78.1911 7.31647C78.2013 7.3641 78.2141 7.41118 78.2293 7.45769C78.5385 8.74413 78.4528 10.1127 77.9506 11.3826C77.6795 12.0685 77.2494 12.6954 76.7067 13.1951L75.606 14.2091C74.3361 13.6657 73.3038 12.6611 72.7284 11.3632Z" fill="#BA7894"/>
<path d="M77.6401 62.082C77.1329 62.082 76.6427 61.808 76.3896 61.3282C75.4757 59.5948 74.9927 57.6367 74.9927 55.6654C74.9927 52.2214 76.4625 48.9249 79.0254 46.6211C79.6058 46.0993 80.4983 46.1473 81.0199 46.7273C81.5413 47.3073 81.4938 48.2002 80.9137 48.7216C78.9458 50.4906 77.8173 53.0213 77.8173 55.6652C77.8173 57.1793 78.1877 58.6819 78.8884 60.0107C79.2521 60.7008 78.9878 61.5549 78.2978 61.9185C78.0875 62.0294 77.8623 62.082 77.6401 62.082Z" fill="#BA7894"/>
<path d="M84.9285 46.5618C84.2746 46.5618 83.6877 46.105 83.5479 45.4395C83.3875 44.6762 83.8763 43.9275 84.6397 43.7673C86.1805 43.4436 87.808 43.4231 89.3567 43.7072C90.1238 43.848 90.6317 44.5839 90.4908 45.351C90.35 46.1182 89.6145 46.626 88.847 46.4853C87.6581 46.2671 86.4036 46.2827 85.2204 46.5315C85.1227 46.552 85.0247 46.5618 84.9285 46.5618Z" fill="#BA7894"/>
<path d="M78.3168 42.6477C78.1677 42.6477 78.0158 42.624 77.8666 42.5737C77.1274 42.3252 76.7295 41.5244 76.978 40.7851C77.2746 39.9033 77.4249 38.9793 77.4249 38.0388C77.4249 33.2916 73.5627 29.4295 68.8156 29.4295C68.2303 29.4295 67.6461 29.4882 67.0789 29.6044C66.315 29.7615 65.5686 29.2681 65.4123 28.504C65.2558 27.7399 65.7486 26.9937 66.5127 26.8374C67.2657 26.6834 68.0405 26.6052 68.8156 26.6052C75.1201 26.6052 80.2493 31.7344 80.2493 38.039C80.2493 39.2861 80.0494 40.513 79.6553 41.6854C79.4568 42.2753 78.9066 42.6477 78.3168 42.6477Z" fill="#BA7894"/>
</g>
<defs>
<clipPath id="clip0_1_1023">
<rect width="96" height="96" fill="white" transform="translate(30)"/>
</clipPath>
</defs>
</svg>
