<svg width="126" height="96" viewBox="0 0 126 96" fill="none" xmlns="http://www.w3.org/2000/svg">
<circle cx="48" cy="48" r="48" fill="#F7E5C1" fill-opacity="0.5"/>
<path d="M64.5 19.5C68.6421 19.5 72 16.1421 72 12C72 7.85786 68.6421 4.5 64.5 4.5C60.3579 4.5 57 7.85786 57 12C57 16.1421 60.3579 19.5 64.5 19.5Z" fill="white"/>
<path d="M109.996 46.1211C107.827 42.6336 103.921 40.5 99.7058 40.5H56.464C52.1577 40.5 48.1815 42.7262 46.045 46.3335L40.0714 56.4187L40.5 63H115.5V54.9722L109.996 46.1211Z" fill="white"/>
<path d="M46.2188 68.9982H67.5L76.5 65.9348L111 69.0001H114.155C118.212 69.0001 121.5 65.6423 121.5 61.5001C121.5 57.2356 118.022 53.8291 113.85 54.0066L46.2188 59.8081V68.9982Z" fill="white"/>
<path d="M90.7354 30.1976L89.5469 30.7563L85.0763 21.2478L86.2649 20.6889C87.2105 20.2443 88.2941 20.1935 89.2772 20.5478C90.2603 20.9021 91.0624 21.6325 91.507 22.5781L92.625 24.9553C92.8452 25.4236 92.9709 25.9306 92.9951 26.4475C93.0193 26.9644 92.9414 27.481 92.766 27.9678C92.5905 28.4546 92.3209 28.902 91.9725 29.2846C91.6241 29.6672 91.2037 29.9774 90.7354 30.1976Z" fill="white"/>
<path d="M62.2099 43.6094L63.3985 43.0505L58.9277 33.542L57.7392 34.1007C56.7935 34.5454 56.0631 35.3475 55.7088 36.3306C55.3545 37.3138 55.4053 38.3973 55.8499 39.3431L56.9676 41.7202C57.4123 42.6659 58.2144 43.3962 59.1975 43.7505C60.1806 44.1048 61.2642 44.0541 62.2099 43.6094Z" fill="white"/>
<path d="M90.3905 43.1251C91.2984 38.1567 90.7355 33.0313 88.7709 28.3784L85.1304 19.7569C84.3371 17.8781 83.1723 16.1788 81.7061 14.7611C80.2399 13.3434 78.5024 12.2366 76.5979 11.5069C74.6934 10.7772 72.6611 10.4398 70.6229 10.5149C68.5848 10.59 66.5828 11.076 64.7372 11.9438C62.8915 12.8116 61.2401 14.0433 59.8821 15.565C58.5241 17.0867 57.4876 18.8671 56.8346 20.7992C56.1816 22.7314 55.9256 24.7756 56.0821 26.8091C56.2386 28.8426 56.8042 30.8236 57.7451 32.6331L62.0625 40.9364C64.3924 45.4175 67.9805 49.1206 72.3859 51.5909C74.4232 52.7334 76.7091 53.3601 79.0442 53.4164C80.6749 53.4558 82.2923 53.115 83.7685 52.4209C85.2446 51.7269 86.5389 50.6987 87.5488 49.4178C88.9951 47.5834 89.9707 45.423 90.3905 43.1251Z" fill="white"/>
<path d="M90.39 43.1249C89.9714 45.423 88.9961 47.5834 87.5494 49.4174C86.5657 50.6651 85.3119 51.6736 83.8823 52.3669C82.4527 53.0603 80.8845 53.4205 79.2957 53.4206C79.2113 53.4206 79.1288 53.4187 79.0444 53.4168C76.7094 53.3596 74.4237 52.7327 72.3863 51.5906C67.9806 49.121 64.3924 45.418 62.0626 40.9368L57.8044 32.7487V32.7468L57.7444 32.6324C56.8037 30.8229 56.2382 28.8419 56.0819 26.8084C55.9256 24.7749 56.1816 22.7308 56.8347 20.7987C57.4878 18.8666 58.5244 17.0863 59.8824 15.5647C61.2404 14.043 62.8918 12.8114 64.7375 11.9437C66.5832 11.0759 68.5851 10.5899 70.6232 10.5149C72.6613 10.4398 74.6936 10.7773 76.5981 11.5069C78.5026 12.2366 80.2401 13.3435 81.7063 14.7611C83.1725 16.1787 84.3373 17.878 85.1307 19.7568L85.1982 19.9162L88.7719 28.3781C90.736 33.0312 91.2984 38.1566 90.39 43.1249Z" fill="white"/>
<path d="M85.1981 19.9162C83.4131 17.8312 81.6468 16.3781 79.8318 15.48C78.9316 15.0298 77.973 14.7074 76.9837 14.5218C76.0314 14.3502 75.0609 14.3016 74.0962 14.3775C72.9892 14.469 71.8953 14.6802 70.8337 15.0075C69.9614 15.2734 69.1051 15.5889 68.2687 15.9525C67.8731 16.1212 67.47 16.305 67.0631 16.5C66.5437 16.75 66.0462 17.0062 65.5706 17.2687C64.5937 17.8035 63.6591 18.4122 62.775 19.0893C61.9586 19.7146 61.205 20.418 60.525 21.1893C60.0001 21.7849 59.533 22.4291 59.13 23.1131C58.6165 23.9795 58.2181 24.9093 57.945 25.8787C57.3618 27.9375 57.3168 30.2193 57.8043 32.7468L57.7443 32.6325C56.6205 30.4805 56.0332 28.0889 56.0325 25.6612C56.0325 25.515 56.0343 25.3687 56.04 25.2243C56.1018 23.1012 56.6076 21.0145 57.525 19.0987C57.9588 18.1924 58.4813 17.3313 59.085 16.5281C60.2429 14.9905 61.6853 13.6894 63.3337 12.6956C63.7886 12.4209 64.2573 12.17 64.7381 11.9437C65.1693 11.7412 65.6043 11.5612 66.0431 11.4037C68.8957 10.3702 71.9936 10.2206 74.9325 10.9743C75.9573 11.2382 76.952 11.6077 77.9006 12.0768C81.1552 13.6849 83.7218 16.4112 85.1306 19.7568L85.1981 19.9162Z" fill="white"/>
<path d="M41.4729 68.9981H46.5L75 58.5L96 55.5L90 51H73.5L47.9387 53.5558C44.9887 53.8509 42.0806 54.4728 39.2679 55.4102C37.8796 55.873 36.672 56.7608 35.8163 57.948C34.9606 59.1352 34.5001 60.5615 34.5 62.025C34.5 62.9407 34.6803 63.8475 35.0307 64.6935C35.3811 65.5395 35.8948 66.3082 36.5423 66.9557C37.1898 67.6032 37.9585 68.1169 38.8045 68.4673C39.6505 68.8178 40.5572 68.9981 41.4729 68.9981Z" fill="white"/>
<path d="M117 69H39C36.5147 69 34.5 71.0147 34.5 73.5V79.5C34.5 81.9853 36.5147 84 39 84H117C119.485 84 121.5 81.9853 121.5 79.5V73.5C121.5 71.0147 119.485 69 117 69Z" fill="#EBEBE9"/>
<path d="M50.954 83.6783L49.5697 83.7756L50.0409 88.6296C50.2066 90.3359 51.7869 91.6169 53.5708 91.4916C55.3546 91.3664 56.6664 89.8818 56.5008 88.1757C56.2406 85.495 53.7571 83.4815 50.954 83.6783Z" fill="white"/>
<path d="M50.1199 84.9907L49.5699 83.7742L44.8884 85.5946C43.2429 86.2345 42.4837 88.024 43.1925 89.5917C43.9012 91.1594 45.8096 91.9117 47.4549 91.2717C50.0405 90.2664 51.2336 87.4542 50.1199 84.9907Z" fill="white"/>
<path d="M46.146 80.0269C45.5735 79.42 44.7936 79.0507 43.9613 78.9925C43.129 78.9342 42.3053 79.1912 41.6538 79.7124L41.6058 79.7516C41.2916 79.9978 41.0319 80.3065 40.8431 80.6582C40.6544 81.0099 40.5408 81.397 40.5094 81.795C40.478 82.1929 40.5297 82.593 40.661 82.97C40.7923 83.3469 41.0005 83.6925 41.2723 83.9848L41.4317 84.159C43.236 86.1326 46.3965 86.3539 48.4903 84.6533L49.5725 83.7744L46.146 80.0269Z" fill="white"/>
<path d="M51.0388 75.4607C49.4981 74.5684 47.508 75.0116 46.5936 76.4509C45.1564 78.7121 45.9538 81.6821 48.3748 83.084L49.5701 83.7765L52.1723 79.6819C53.0867 78.2437 52.5791 76.3528 51.0388 75.4607Z" fill="white"/>
<path d="M55.9688 78.9675C53.2223 78.333 50.4938 79.9133 49.875 82.4972L49.5696 83.7733H49.5739L50.9539 83.6773C52.3564 83.5799 53.7407 84.0396 54.8063 84.9566C56.4611 85.2066 58.0459 84.2364 58.4198 82.6753C58.8137 81.0317 57.7161 79.3714 55.9688 78.9675Z" fill="white"/>
<path d="M117 69H98.5875C86.292 76.8669 70.4895 81.4365 58.2456 84H117C118.194 84 119.338 83.5259 120.182 82.682C121.026 81.8381 121.5 80.6935 121.5 79.5V73.5C121.5 72.3065 121.026 71.1619 120.182 70.318C119.338 69.4741 118.194 69 117 69Z" fill="#E0E0DE"/>
<path d="M123 61.5C123.011 59.4363 122.306 57.4326 121.006 55.8302C119.705 54.2279 117.889 53.1261 115.867 52.7126L111.268 45.3325C108.838 41.4259 104.407 39 99.7046 39H92.2704C92.3267 36.4851 92.03 33.9746 91.3892 31.542C92.6883 30.9251 93.6902 29.819 94.176 28.4654C94.6618 27.1118 94.5918 25.6209 93.9814 24.3188L92.8594 21.94C92.3084 20.7732 91.3598 19.841 90.1836 19.3104C89.0074 18.7799 87.6807 18.6858 86.4414 19.045C85.1164 15.9555 82.881 13.3435 80.0332 11.5571C78.1153 10.3353 75.9608 9.5326 73.7109 9.20159C73.491 9.16409 73.2347 9.1594 73.0018 9.13352C72.6 7.91583 71.942 6.79835 71.0721 5.8563C70.2021 4.91426 69.1405 4.1695 67.9586 3.67218C66.7767 3.17485 65.5019 2.93649 64.2202 2.97315C62.9384 3.00981 61.6794 3.32063 60.5279 3.88469C59.3763 4.44875 58.359 5.25296 57.5443 6.24319C56.7296 7.23342 56.1366 8.38668 55.805 9.62534C55.4734 10.864 55.4111 12.1593 55.6221 13.4241C55.8332 14.6889 56.3127 15.8938 57.0285 16.9577C55.797 18.9364 55 21.1541 54.69 23.464C54.5889 24.193 54.5387 24.9282 54.54 25.6643C54.5348 28.2799 55.1569 30.8586 56.3541 33.1841C55.4108 33.8348 54.6966 34.7662 54.3128 35.846C53.9291 36.9257 53.8954 38.099 54.2166 39.199C50.2753 39.8438 46.7676 42.1538 44.7615 45.567L39.9636 53.6338C39.5734 53.7514 39.18 53.8588 38.7934 53.9884C37.3779 54.4583 36.1119 55.2942 35.1236 56.4112C34.1353 57.5282 33.46 58.8867 33.166 60.3488C32.872 61.811 32.9699 63.3249 33.4497 64.7371C33.9295 66.1492 34.7741 67.4094 35.898 68.3899C35.0161 68.9204 34.2861 69.6695 33.7784 70.5647C33.2707 71.4598 33.0026 72.4709 33 73.5V79.5C33.0002 80.3449 33.1785 81.1803 33.5233 81.9516C33.8681 82.7229 34.3716 83.4129 35.001 83.9766L36.999 81.7384C36.6845 81.4564 36.433 81.1114 36.2609 80.7257C36.0888 80.34 35.9999 79.9224 36 79.5V73.5C36.001 72.7047 36.3174 71.9422 36.8798 71.3798C37.4422 70.8175 38.2047 70.5011 39 70.5H117C117.795 70.5011 118.558 70.8175 119.12 71.3798C119.683 71.9422 119.999 72.7047 120 73.5V79.5C119.999 80.2954 119.683 81.0578 119.12 81.6202C118.558 82.1826 117.795 82.499 117 82.5H63V85.5H117C118.591 85.4984 120.116 84.8658 121.241 83.7409C122.366 82.616 122.998 81.0908 123 79.5V73.5C122.996 72.4387 122.71 71.3974 122.171 70.4832C121.632 69.5689 120.86 68.8146 119.933 68.2976C120.898 67.4481 121.671 66.4022 122.2 65.23C122.729 64.0577 123.002 62.7861 123 61.5ZM108.722 46.9189L112.299 52.6592L96.5336 54.0259L90.9 49.8C90.6405 49.605 90.3246 49.4997 90 49.5H89.3203C90.5836 47.6677 91.4498 45.5914 91.8634 43.4046C91.9494 42.952 92.0216 42.481 92.0816 41.9998H99.7046C103.378 42 106.834 43.8838 108.722 46.9189ZM90.1436 23.2148L91.2686 25.6011C91.5105 26.1202 91.5614 26.7081 91.4121 27.261C91.2628 27.8139 90.9231 28.2964 90.4528 28.6232C90.3471 28.3506 90.2653 28.0607 90.1509 27.7969L87.6354 21.8438C88.1448 21.777 88.6623 21.8738 89.1131 22.1203C89.5639 22.3667 89.9248 22.75 90.1436 23.2148ZM83.7452 20.3423L87.3926 28.9761C87.7017 29.6913 87.9692 30.4238 88.1938 31.1698C89.1324 34.1489 89.4822 37.2821 89.2236 40.3948C89.1695 41.2201 89.0663 42.0413 88.9146 42.8543C88.5342 44.909 87.6653 46.8422 86.3813 48.4907C86.0904 48.8521 85.7718 49.1902 85.4284 49.5021L72.0981 49.6333C69.0751 47.7555 66.5058 45.2311 64.575 42.2417C64.1489 41.5987 63.7577 40.9331 63.4031 40.248L59.079 31.9438C58.0768 30.0339 57.5509 27.9101 57.546 25.7531L58.6322 26.1446L59.6488 23.3233L57.8899 22.6892C58.0957 21.763 58.3988 20.8611 58.794 19.9986L62.169 22.2486L63.8333 19.7526L60.3234 17.413C61.3441 16.0587 62.6107 14.9088 64.0571 14.0235L66.1729 18.5235L68.8886 17.2461L66.7719 12.744C68.3147 12.2141 69.9418 11.9725 71.5719 12.0315L70.5456 16.1366L73.4548 16.8634L74.5631 12.4296C75.5428 12.6792 76.4906 13.0405 77.3878 13.5064L76.7477 15.2843L79.569 16.3009L79.9577 15.2215C81.6092 16.6031 82.9076 18.3586 83.7452 20.3423ZM57.7511 35.8875L60.7442 41.6361C60.8886 41.9093 61.0254 42.1577 61.1576 42.3947C60.6062 42.5458 60.019 42.496 59.5008 42.2543C58.9827 42.0126 58.5672 41.5947 58.3286 41.0751L57.2051 38.7126C56.9886 38.2439 56.9249 37.719 57.0228 37.2121C57.1208 36.7051 57.3756 36.2418 57.7511 35.8875ZM64.5 6.00002C65.5665 6.00239 66.613 6.28924 67.5316 6.831C68.4502 7.37276 69.2077 8.1498 69.7258 9.08196C65.6175 9.42532 61.7866 11.2945 58.9875 14.3213C58.5945 13.4115 58.4347 12.418 58.5225 11.4308C58.6103 10.4437 58.9429 9.49399 59.4902 8.66778C60.0376 7.84158 60.7823 7.16493 61.6571 6.69911C62.5318 6.23329 63.509 5.99301 64.5 6.00002ZM47.3438 47.0948C49.0284 44.226 52.0901 42.3671 55.4758 42.063L55.6129 42.3516C55.9135 42.9998 56.3394 43.582 56.8662 44.0647C57.393 44.5474 58.0102 44.9211 58.6821 45.164C59.354 45.4069 60.0674 45.5144 60.7811 45.4802C61.4948 45.446 62.1946 45.2708 62.8402 44.9648L62.8498 44.9605C64.2132 46.8656 65.8173 48.5864 67.6221 50.0801L47.7891 52.0635C46.5368 52.1884 45.2914 52.3856 44.0537 52.6249L47.3438 47.0948ZM39.7427 56.833C42.4499 55.9316 45.2488 55.3332 48.0879 55.0489L73.5 52.5H89.5005L92.2031 54.5273L74.7876 57.0131C74.683 57.0281 74.5804 57.0542 74.4814 57.0908L46.2319 67.4985H41.4727C40.1731 67.4985 38.9159 67.036 37.9261 66.1938C36.9363 65.3515 36.2785 64.1846 36.0704 62.9017C35.8623 61.6189 36.1175 60.3038 36.7903 59.1919C37.4632 58.08 38.5097 57.2438 39.7427 56.833ZM114.15 67.5H111.066L76.6312 64.4458C76.4232 64.4252 76.2131 64.4508 76.0161 64.5208L67.2525 67.5H54.9062L75.3692 59.9605L94.7934 57.1875L113.85 55.5H114.134C114.345 55.4992 114.556 55.5115 114.766 55.5366C117.75 55.8647 120 58.4282 120 61.5C120 64.809 117.375 67.5 114.15 67.5Z" fill="#BA7894"/>
<path d="M63.9946 36.6036L65.8754 38.9416C67.5006 37.6373 69.4125 36.738 71.4536 36.3179L70.8536 33.3794C68.344 33.8953 65.9931 35.0005 63.9946 36.6036Z" fill="#BA7894"/>
<path d="M78.8526 41.3687C77.786 41.8712 76.6269 42.147 75.4483 42.1787L75.2021 42.1845L75.2725 45.1845L75.5171 45.1787C78.1207 45.1096 80.6246 44.1635 82.6234 42.4937L80.6987 40.1938C80.1365 40.6633 79.516 41.0582 78.8526 41.3687Z" fill="#BA7894"/>
<path d="M70.3183 32.3277L71.1678 29.4507C66.9287 28.2012 62.666 30.2125 61.0327 34.2379L63.813 35.3657C64.8707 32.7583 67.5425 31.5117 70.3183 32.3277Z" fill="#BA7894"/>
<path d="M74.1188 28.0634L76.875 29.2447C78.0131 26.5889 80.6777 25.3291 83.3657 26.1729L84.2681 23.3135C80.127 22.0019 75.8584 24.0014 74.1188 28.0634Z" fill="#BA7894"/>
<path d="M72.3077 31.6213L75.0238 30.3459L78.9305 38.665L76.2145 39.9404L72.3077 31.6213Z" fill="#BA7894"/>
<path d="M79.3022 32.8302C80.9279 31.5262 82.84 30.6269 84.8812 30.2063L84.2776 27.2678C81.7689 27.7841 79.4187 28.8891 77.4208 30.4919L79.3022 32.8302Z" fill="#BA7894"/>
<path d="M59.323 79.6455C58.9876 79.1063 58.548 78.6393 58.03 78.2719C57.512 77.9045 56.9259 77.644 56.3061 77.5058C55.5701 77.3354 54.811 77.2877 54.0595 77.3646C54.0426 77.2678 54.0235 77.1713 53.9999 77.0747C53.8489 76.4646 53.5752 75.8916 53.1953 75.3909C52.8154 74.8901 52.3373 74.4721 51.7903 74.1625C49.5664 72.8745 46.6664 73.5398 45.3274 75.6462C44.9561 76.2291 44.6869 76.871 44.5313 77.5444C43.8592 77.4311 43.1707 77.462 42.5115 77.6352C41.8522 77.8084 41.2374 78.1198 40.7078 78.5488L40.6605 78.5863C40.186 78.9647 39.7947 79.4369 39.511 79.9734C39.2273 80.51 39.0575 81.0993 39.012 81.7045C38.9675 82.3029 39.0469 82.9041 39.2454 83.4704C39.4438 84.0367 39.757 84.5559 40.1654 84.9957L40.3247 85.1704C40.7778 85.6646 41.3059 86.0841 41.8898 86.4135C41.597 87.0014 41.4393 87.6472 41.4282 88.3039C41.4171 88.9605 41.553 89.6113 41.8259 90.2087C42.3561 91.3206 43.2863 92.1915 44.4306 92.6475C45.5748 93.1036 46.8491 93.1112 47.9987 92.6689C48.6789 92.4061 49.3103 92.0312 49.8666 91.5598C50.321 92.0162 50.8611 92.3784 51.4558 92.6255C52.0505 92.8726 52.6881 92.9999 53.3322 93C53.4462 93 53.5608 92.996 53.676 92.988C54.3053 92.949 54.9202 92.7833 55.4838 92.5008C56.0475 92.2183 56.5483 91.8249 56.9562 91.3442C57.3433 90.8903 57.6347 90.3629 57.813 89.7936C57.9913 89.2243 58.0528 88.6249 57.9938 88.0313C57.9255 87.3344 57.7399 86.6542 57.4448 86.0192C58.0483 85.7335 58.5801 85.3162 59.0013 84.7981C59.4225 84.28 59.7224 83.6742 59.8789 83.025C60.0155 82.453 60.0366 81.8596 59.9412 81.2793C59.8457 80.6991 59.6356 80.1436 59.323 79.6455ZM55.6313 80.4291C55.8648 80.4792 56.0861 80.5754 56.282 80.712C56.478 80.8486 56.6448 81.0229 56.7726 81.2247C56.8758 81.3865 56.9457 81.5674 56.9782 81.7566C57.0107 81.9458 57.0051 82.1396 56.9618 82.3266C56.7994 83.0053 56.1347 83.4754 55.3733 83.4953C54.2723 82.6838 52.9526 82.2224 51.5858 82.171C52.2794 80.8024 53.9488 80.0398 55.6313 80.4291ZM47.8594 77.2553C48.3387 76.5015 49.4504 76.2743 50.2868 76.7586C50.4829 76.8668 50.6548 77.0139 50.7922 77.1907C50.9295 77.3676 51.0294 77.5706 51.0857 77.7874C51.135 77.989 51.1389 78.199 51.0972 78.4022C49.97 79.1236 49.1058 80.1897 48.6334 81.4418C48.0571 80.9823 47.6477 80.3462 47.4683 79.6313C47.3684 79.2295 47.3516 78.8115 47.4189 78.403C47.4861 77.9944 47.636 77.6039 47.8594 77.2553ZM42.0038 81.927C42.0206 81.7296 42.078 81.5378 42.1724 81.3636C42.2667 81.1893 42.3961 81.0365 42.5522 80.9145L42.5997 80.877C42.8895 80.6477 43.242 80.5116 43.6108 80.4866C43.9795 80.4616 44.3472 80.5489 44.6653 80.737C45.0641 81.9991 45.8468 83.1053 46.9043 83.9014C46.1926 84.263 45.3831 84.385 44.5964 84.2491C43.8097 84.1132 43.0881 83.7267 42.5389 83.1473L42.3794 82.9727C42.2482 82.8336 42.1471 82.669 42.0825 82.4891C42.0179 82.3091 41.9911 82.1178 42.0038 81.927ZM46.9112 89.8738C46.0142 90.2224 44.9376 89.8103 44.5594 88.9738C44.4275 88.6885 44.3941 88.3674 44.4643 88.061C44.5345 87.7546 44.7044 87.4802 44.9474 87.2807C45.042 87.2847 45.1365 87.2877 45.2312 87.2877C46.5525 87.2923 47.8455 86.9058 48.9475 86.1769C49.1015 86.8011 49.0534 87.4581 48.81 88.0532C48.6353 88.4707 48.3765 88.8477 48.0499 89.1609C47.7232 89.4741 47.3356 89.7168 46.9112 89.8738ZM54.6653 89.4073C54.5151 89.5811 54.3314 89.7227 54.1252 89.8237C53.9191 89.9247 53.6946 89.9831 53.4653 89.9953C53.0981 90.0231 52.731 89.9407 52.4109 89.7589C52.0907 89.577 51.8321 89.3038 51.6679 88.9742C52.1148 87.7599 52.1576 86.4337 51.7898 85.1931C53.4702 85.3945 54.8483 86.6788 55.0075 88.3208C55.0265 88.5156 55.0061 88.7123 54.9473 88.899C54.8885 89.0857 54.7926 89.2586 54.6653 89.4073Z" fill="#BA7894"/>
</svg>
