<svg width="126" height="96" viewBox="0 0 126 96" fill="none" xmlns="http://www.w3.org/2000/svg">
<circle cx="48" cy="48" r="48" fill="#F7E5C1" fill-opacity="0.5"/>
<path d="M67.7759 9C80.3113 9 90.5202 19.2083 90.5356 31.7451V51.8721L92.4253 52.3291L96.5854 44.2334L96.7505 43.9111L96.6723 43.5576C96.302 41.9027 95.6457 38.4579 95.7036 35.1572C95.7326 33.5057 95.9402 31.9517 96.4116 30.6953C96.8793 29.4491 97.5761 28.5671 98.5542 28.1035L98.5552 28.1045C99.8562 27.4892 101.842 27.5254 104.147 28.1182C106.408 28.6997 108.788 29.7677 110.74 30.9629V30.9639C111.85 31.6469 113.306 32.6629 114.484 33.8936C115.679 35.1414 116.467 36.4822 116.504 37.8203V38.0225C116.479 39.0297 116.044 40.0423 115.26 41.0557C114.423 42.1381 113.235 43.1579 111.902 44.0791C109.237 45.921 106.159 47.2561 104.655 47.8545L104.325 47.9863L104.151 48.2959L94.3276 65.8643L94.0581 66.3447L94.3218 66.8291C96.37 70.599 96.1732 75.3452 95.9136 80.6523C95.8177 82.4904 95.7202 84.435 95.7202 86.4004C95.72 86.7279 95.4472 87 95.1196 87H40.4643C40.1368 87 39.864 86.7279 39.8638 86.4004C39.8638 84.9262 39.8096 83.4634 39.7417 82.0488L39.6704 80.6523C39.3121 73.3223 39.0646 67.051 44.6313 63.0518L45.0483 62.7529V31.7441C45.0483 19.2076 55.2411 9.00007 67.7759 9ZM53.6069 60.7842C53.4781 60.8128 53.3544 60.8545 53.2973 60.873C53.2231 60.8971 53.1968 60.9039 53.1802 60.9072L53.1684 60.9102C46.8587 62.2476 43.4983 64.6206 41.9165 68.1621C41.1466 69.8859 40.8355 71.81 40.7378 73.8711C40.6647 75.4132 40.7099 77.0719 40.7876 78.8184L40.8735 80.5938C40.9375 81.9688 41.001 83.3808 41.0327 84.8379L41.0532 85.8164H65.7016L63.7554 84.0713C57.1834 78.1813 55.4929 71.443 55.437 71.208L55.435 71.2031L55.4204 71.1123C55.4027 70.8997 55.5025 70.6901 55.6899 70.5703L55.6958 70.5674L58.1919 68.9512L59.4438 68.1406L58.2182 67.29L54.5122 64.7188H54.5132C54.3058 64.5724 54.2089 64.3076 54.2651 64.0723L54.7925 62.0078L55.1958 60.4307L53.6069 60.7842ZM80.7749 61.9922L81.3003 64.0439V64.0449C81.3624 64.2998 81.2653 64.5539 81.0561 64.7021L77.3501 67.2744L76.1245 68.125L77.3764 68.9355L79.8725 70.5518L79.8774 70.5547C80.0916 70.6915 80.1914 70.9454 80.1323 71.1875L80.1304 71.1943L80.1284 71.2021C80.074 71.4417 78.3861 78.18 71.8139 84.0547L69.8608 85.7998H94.4985L94.52 84.8223C94.5516 83.3836 94.6303 81.9813 94.6948 80.5938C94.8142 78.1907 94.9281 75.9274 94.8306 73.8711C94.7328 71.81 94.4208 69.886 93.6509 68.1621C92.0744 64.6328 88.7323 62.2638 82.4643 60.9238C82.4275 60.9121 82.3959 60.9009 82.3081 60.8691C82.223 60.8384 82.0944 60.7946 81.9399 60.7637L80.3813 60.4512L80.7749 61.9922ZM56.4712 60.2168L55.687 63.2891L55.5151 63.9629L56.0874 64.3584L60.8472 67.6494H60.8481C61.0005 67.7567 61.1063 67.9523 61.1108 68.1621C61.0995 68.3636 60.9939 68.5445 60.8354 68.6465L60.8315 68.6494L57.3589 70.9053L56.6958 71.3369L56.9624 72.0811C57.8501 74.5601 60.5882 80.6243 67.2007 85.2812L67.7759 85.6875L68.352 85.2812C74.9643 80.6244 77.7016 74.56 78.5893 72.0811L78.8559 71.3369L78.1929 70.9053L74.7261 68.6523C74.5766 68.5506 74.4741 68.3847 74.4468 68.2178L74.4399 68.1455C74.4355 67.9853 74.5042 67.8216 74.6411 67.6992L74.7036 67.6494L79.4643 64.3584L80.0356 63.9639L79.8657 63.291L79.1294 60.3789L78.7964 59.0596L77.6362 59.7715C74.6447 61.6089 71.2909 62.5195 67.9204 62.5195C64.4759 62.5195 61.0137 61.549 57.9761 59.6201L56.812 58.8809L56.4712 60.2168ZM97.1431 45.7021L90.6147 58.3906L90.5044 58.6055V62.7432L90.9292 63.042C91.4658 63.4191 91.9339 63.828 92.3647 64.2588L93.3003 65.1943L93.9448 64.0391L102.553 48.6152L103.047 47.7295L102.155 47.248L98.5063 45.2803L97.6089 44.7959L97.1431 45.7021ZM67.7759 10.2002C55.9111 10.2003 46.2475 19.8644 46.2475 31.7441V61.9863L47.645 61.3818C49.1358 60.7363 50.8479 60.1645 52.9097 59.7305L52.9165 59.7295C56.7277 58.9024 59.5624 55.7731 60.0639 51.9043L60.1284 51.4014L59.7622 51.0518C56.2734 47.7284 53.9282 42.2749 53.9282 36.0479V35.9209C53.9451 35.6052 54.1982 35.3571 54.4536 35.3311L54.4575 35.3301C62.7301 34.4539 69.8537 28.7191 73.604 20.1611L73.6069 20.1543C73.674 19.9977 73.8265 19.8622 74.0102 19.8115C74.1667 19.7685 74.3501 19.7952 74.5151 19.9121C78.8273 23.1411 81.6079 29.2866 81.6079 36.0479C81.6079 42.2767 79.2779 47.7296 75.7905 51.0518L75.4223 51.4023L75.4888 51.9053C75.9898 55.7346 78.8189 58.9193 82.6401 59.7305H82.6421C84.7039 60.1645 86.4159 60.7363 87.9067 61.3818L89.3042 61.9863V31.7441C89.3042 19.8649 79.6572 10.2002 67.7759 10.2002ZM73.2007 53.0352C71.5142 53.9967 69.6834 54.5195 67.7759 54.5195C65.8688 54.5195 64.0528 53.997 62.3804 53.0498L61.2788 52.4258L60.9272 53.6426C60.5176 55.0618 59.8315 56.3448 58.9145 57.4365L58.1509 58.3447L59.1753 58.9434C64.5236 62.0675 71.0956 62.1007 76.4761 59.0625L77.5347 58.4648L76.7436 57.541C75.7877 56.4258 75.0834 55.083 74.6557 53.623L74.3003 52.4082L73.2007 53.0352ZM73.8003 22.5312C69.8933 30.0661 63.4039 35.0576 55.9917 36.3262L55.1138 36.4766L55.1616 37.3652C55.3951 41.7265 56.8259 45.6786 59.0454 48.5635C61.2649 51.4481 64.3254 53.3203 67.7759 53.3203C71.3982 53.3203 74.5846 51.2638 76.8257 48.1318C79.0681 44.9979 80.4243 40.7208 80.4243 36.0479C80.4243 30.6572 78.5811 25.5733 75.4067 22.2959L74.4399 21.2988L73.8003 22.5312ZM101.321 28.8457C100.517 28.807 99.7145 28.8835 99.061 29.1924H99.06C98.1267 29.6345 97.639 30.6137 97.3667 31.5498C97.081 32.5318 96.953 33.7377 96.9282 35.0107C96.8784 37.5663 97.2419 40.6015 97.7905 43.1396L97.8882 43.5898L98.2934 43.8076L99.5093 44.4639L100.39 44.9395L100.865 44.0576L102.913 40.25L102.916 40.2451C103.069 39.9553 103.421 39.8427 103.723 40.0029C104.013 40.1568 104.125 40.5091 103.964 40.8115L101.919 44.6143L101.444 45.498L102.33 45.9707L103.53 46.6104L103.942 46.8311L104.376 46.6543C106.638 45.7367 109.299 44.3753 111.406 42.9014C112.456 42.1661 113.406 41.3771 114.099 40.5742C114.768 39.7994 115.33 38.8607 115.304 37.8467L115.303 37.8418C115.276 36.9442 114.701 35.9558 113.887 35.0342C113.034 34.0686 111.78 33.0203 110.109 31.9971H110.11C108.129 30.7734 105.956 29.838 104.031 29.3135C103.068 29.0513 102.144 28.8854 101.321 28.8457Z" fill="white" stroke="#BA7894" stroke-width="2"/>
</svg>
