<svg width="126" height="96" viewBox="0 0 126 96" fill="none" xmlns="http://www.w3.org/2000/svg">
<circle cx="48" cy="48" r="48" fill="#F7E5C1" fill-opacity="0.5"/>
<path d="M69.1287 62.1708H39.3687V35.2353C39.3687 27.9115 45.3068 21.9734 52.6305 21.9734H57.6433L61.356 34.9692L69.1287 62.1708Z" fill="white"/>
<path d="M69.1287 62.1708H39.3687V55.9252L61.3562 34.9692L69.1287 62.1708Z" fill="white"/>
<path d="M104.297 52.1617L86.92 37.8247H70.3603L52.983 52.1617C48.8955 55.5343 51.2801 62.1716 56.5793 62.1716H78.6403L78.6401 62.1706H78.6409L78.6407 62.1716H100.702C106 62.1716 108.385 55.5341 104.297 52.1617Z" fill="white"/>
<path d="M117.47 75.761H38.5302C34.7772 75.761 31.735 72.7187 31.735 68.9658C31.735 65.2128 34.7774 62.1707 38.5302 62.1707H117.47C121.223 62.1707 124.265 65.213 124.265 68.9658C124.265 72.7188 121.223 75.761 117.47 75.761Z" fill="white"/>
<path d="M124.265 68.9656C124.265 70.8418 123.504 72.542 122.276 73.7703C121.045 75.0009 119.347 75.7619 117.469 75.7619H38.529C34.777 75.7619 31.735 72.7177 31.735 68.9656C31.735 67.7281 32.0657 66.5692 32.6464 65.5698C33.8192 67.6008 36.0145 68.9656 38.529 68.9656H117.469C119.347 68.9656 121.045 68.2046 122.276 66.9763C122.694 66.5576 123.058 66.0856 123.354 65.5698C123.934 66.5692 124.265 67.7281 124.265 68.9656Z" fill="white"/>
<path d="M48.0632 75.761H40.2268V92.8814H48.0632V75.761Z" fill="white"/>
<path d="M115.774 75.761H107.938V92.8814H115.774V75.761Z" fill="white"/>
<path d="M78.6407 56.5626C85.7639 56.5626 91.5384 50.7881 91.5384 43.6648C91.5384 36.5416 85.7639 30.7671 78.6407 30.7671C71.5174 30.7671 65.7429 36.5416 65.7429 43.6648C65.7429 50.7881 71.5174 56.5626 78.6407 56.5626Z" fill="white"/>
<path d="M91.5371 43.6648C91.5371 50.7896 85.7632 56.5635 78.6406 56.5635C71.5158 56.5635 65.7419 50.7896 65.7419 43.6648C65.7419 42.6123 65.8668 41.5897 66.1074 40.6113C67.4791 46.2603 72.5683 50.4541 78.6406 50.4541C84.7106 50.4541 89.7997 46.2601 91.1714 40.6113C91.4122 41.5897 91.5371 42.6121 91.5371 43.6648Z" fill="white"/>
<path d="M54.2891 28.9146C61.4123 28.9146 67.1869 23.1401 67.1869 16.0169C67.1869 8.89366 61.4123 3.11914 54.2891 3.11914C47.1659 3.11914 41.3914 8.89366 41.3914 16.0169C41.3914 23.1401 47.1659 28.9146 54.2891 28.9146Z" fill="white"/>
<path d="M126 68.9658C126 64.2622 122.174 60.4357 117.47 60.4357H106.965C107.237 59.9952 107.47 59.5225 107.652 59.017C108.718 56.0478 107.835 52.8314 105.401 50.8233L92.9321 40.5355C91.4944 33.9668 85.6341 29.0333 78.6401 29.0333C71.9173 29.0333 66.2426 33.592 64.5354 39.7795L61.3988 28.7999C65.8821 26.2966 68.9222 21.506 68.9222 16.0167C68.9222 7.94841 62.3582 1.38403 54.2895 1.38403C46.2208 1.38403 39.6564 7.94784 39.6564 16.0162C39.6564 19.1236 40.6331 22.0058 42.2914 24.3779C39.318 27.2026 37.6337 31.0844 37.6337 35.2351V60.4831C33.3501 60.9325 30 64.5653 30 68.9662C30 73.6565 33.8055 77.4742 38.4913 77.4953V82.5382C38.4913 83.4963 39.2681 84.2731 40.2263 84.2731C41.1844 84.2731 41.9612 83.4963 41.9612 82.5382V77.4959H46.3277V91.1457H41.9612V90.7947C41.9612 89.8366 41.1844 89.0598 40.2263 89.0598C39.2681 89.0598 38.4913 89.8366 38.4913 90.7947V92.8808C38.4913 93.839 39.2681 94.6158 40.2263 94.6158H48.0626C49.0207 94.6158 49.7976 93.839 49.7976 92.8808V91.2518L77.694 77.6902L106.043 91.4718C106.095 91.4975 106.149 91.5187 106.203 91.5387V92.8808C106.203 93.839 106.979 94.6158 107.938 94.6158H115.774C116.732 94.6158 117.509 93.839 117.509 92.8808V77.495C122.194 77.4738 126 73.6563 126 68.9658ZM104.386 57.8437C103.936 59.0967 102.731 60.4357 100.7 60.4357H80.3749V58.192C83.0976 57.8686 85.5919 56.7957 87.6478 55.1845C87.7926 55.2235 87.9441 55.2466 88.1012 55.2466H94.4241C95.3822 55.2466 96.159 54.4698 96.159 53.5117C96.159 52.5535 95.3822 51.7767 94.4241 51.7767H90.8119C92.0887 49.8667 92.928 47.641 93.1864 45.2437L103.193 53.4997C104.759 54.7919 104.836 56.5908 104.386 57.8437ZM52.8932 57.8437C52.443 56.5908 52.5201 54.7917 54.0864 53.4997L64.0939 45.2429C64.3521 47.6407 65.1913 49.8665 66.4684 51.7767H62.8562C61.8981 51.7767 61.1212 52.5535 61.1212 53.5117C61.1212 54.4698 61.8981 55.2466 62.8562 55.2466H68.8472C69.0906 55.2466 69.3219 55.1962 69.5319 55.1058C71.6064 56.7608 74.1381 57.8637 76.9052 58.1924V60.436H56.5792C54.5482 60.4357 53.3436 59.0969 52.8932 57.8437ZM78.6401 32.503C84.7952 32.503 89.8029 37.5106 89.8029 43.6658C89.8029 49.8211 84.7954 54.8287 78.6401 54.8287C72.4849 54.8287 67.4773 49.8211 67.4773 43.6658C67.4773 37.5106 72.4851 32.503 78.6401 32.503ZM54.2891 4.85335C60.4442 4.85335 65.4519 9.86091 65.4519 16.0162C65.4519 22.1714 60.4442 27.179 54.2891 27.179C48.1341 27.179 43.1263 22.1716 43.1263 16.0162C43.1263 9.86072 48.1341 4.85335 54.2891 4.85335ZM44.6001 26.9682C47.1831 29.2561 50.5757 30.6488 54.2891 30.6488C55.632 30.6488 56.9316 30.4634 58.1677 30.1231L61.7541 42.6747L56.4789 47.0268L53.8153 39.008C53.5132 38.0986 52.5309 37.6062 51.6219 37.9085C50.7126 38.2105 50.2204 39.1925 50.5224 40.1018L53.6094 49.3947L51.8782 50.8231C49.4445 52.8314 48.561 56.0476 49.6279 59.017C49.8094 59.5227 50.0428 59.9952 50.3149 60.4357H41.1036V35.2351C41.1036 32.084 42.366 29.1331 44.6001 26.9682ZM49.7976 77.4959H70.1572L49.7976 87.3937V77.4959ZM109.672 91.1461V77.4961H114.039V91.1459H109.672V91.1461ZM117.47 74.026H102.636C101.678 74.026 100.901 74.8028 100.901 75.761C100.901 76.7191 101.678 77.4959 102.636 77.4959H106.203V87.6914L85.2309 77.4959H93.2741C94.2323 77.4959 95.0091 76.7191 95.0091 75.761C95.0091 74.8028 94.2323 74.026 93.2741 74.026H38.5301C35.7399 74.026 33.4699 71.756 33.4699 68.9658C33.4699 66.1756 35.7399 63.9055 38.5301 63.9055H56.5792H100.7H117.47C120.26 63.9055 122.53 66.1756 122.53 68.9658C122.53 71.756 120.26 74.026 117.47 74.026Z" fill="#BA7894"/>
</svg>
