<svg width="126" height="96" viewBox="0 0 126 96" fill="none" xmlns="http://www.w3.org/2000/svg">
<circle cx="48" cy="48" r="48" fill="#F7E5C1" fill-opacity="0.5"/>
<g clip-path="url(#clip0_1_906)">
<mask id="mask0_1_906" style="mask-type:luminance" maskUnits="userSpaceOnUse" x="30" y="0" width="96" height="96">
<path d="M30 7.62939e-06H126V96H30V7.62939e-06Z" fill="white"/>
</mask>
<g mask="url(#mask0_1_906)">
<path d="M89.7382 71.4548V52.4591H66.2617V71.4548C66.2617 72.474 65.595 73.3719 64.6196 73.6674C55.6072 76.3971 40.8622 79.0594 40.8622 91.4366V92.769C40.8622 93.7768 41.6792 94.5938 42.687 94.5938H113.313C114.321 94.5938 115.138 93.7768 115.138 92.769V91.4366C115.138 79.0594 100.393 76.3971 91.3804 73.6674C90.405 73.3719 89.7382 72.474 89.7382 71.4548Z" fill="#F9F9F9"/>
<path d="M91.3804 73.6674C90.4048 73.3719 89.7383 72.4739 89.7383 71.4547V52.4591H84.1133V73.5172C84.1133 74.5364 84.7798 75.4344 85.7554 75.7299C94.7676 78.4595 109.513 79.4343 109.513 91.8116V92.7689C109.513 93.7766 108.696 94.5935 107.688 94.5935H113.313C114.321 94.5935 115.138 93.7768 115.138 92.7689V91.4366C115.138 79.0593 100.393 76.397 91.3804 73.6674Z" fill="white"/>
<path d="M106.408 34.5696V29.8138C106.408 14.1248 93.6891 1.40627 78 1.40627C62.3108 1.40627 49.5923 14.1248 49.5923 29.8138V34.5696H106.408Z" fill="white"/>
<path d="M78 1.40627C76.5225 1.40627 75.0712 1.51933 73.6545 1.73683C88.029 3.88746 100.783 16.306 100.783 31.3052V34.5696H106.408V29.8138C106.408 14.1248 93.689 1.40627 78 1.40627Z" fill="white"/>
<path d="M74.3604 16.0417C63.981 16.0417 55.5667 24.4559 55.5667 34.8354V44.8994C55.5667 56.1271 70.7527 64.2766 78 64.2766C85.2472 64.2766 100.433 56.1271 100.433 44.8994V34.8354C100.433 24.4559 92.0191 16.0417 81.6395 16.0417H74.3604Z" fill="#F9F9F9"/>
<path d="M81.6396 16.0417H76.0146C86.394 16.0417 94.8082 24.4559 94.8082 34.8354V44.8994C94.8082 54.8225 82.9474 62.3399 75.1875 63.9532C76.2077 64.1652 77.1579 64.2766 78 64.2766C85.2473 64.2766 100.433 56.1271 100.433 44.8994V34.8354C100.433 24.4559 92.019 16.0417 81.6396 16.0417Z" fill="white"/>
<path d="M65.2428 56.8057L57.8192 49.2241L56.0696 40.6537L57.5657 33.9151L48.5557 21.4773L45.7256 5.69039C45.6341 5.18076 45.147 4.84176 44.6373 4.93307L32.925 7.03289C32.3992 7.1272 32.0585 7.64076 32.1757 8.16164L39.8732 42.3498C40.7276 46.1452 42.9255 49.5035 46.0616 51.8058L63.201 64.3886C63.9738 64.9561 65.0662 64.8187 65.6552 64.0619C67.3535 61.8793 67.1756 58.7795 65.2428 56.8057Z" fill="white"/>
<path d="M50.9968 35.0926L52.712 44.6603C53.0373 46.4744 54.7713 47.6811 56.5854 47.356C58.3993 47.0307 59.6062 45.2967 59.2809 43.4828L57.5656 33.9149L50.9968 35.0926Z" fill="white"/>
<path d="M90.7571 56.8057L98.1808 49.2241L99.9304 40.6537L98.4343 33.9151L107.444 21.4773L110.274 5.69039C110.366 5.18076 110.853 4.84176 111.363 4.93307L123.075 7.03289C123.601 7.1272 123.941 7.64076 123.824 8.16164L116.127 42.3498C115.272 46.1452 113.074 49.5035 109.938 51.8058L92.799 64.3886C92.0261 64.9561 90.9337 64.8187 90.3448 64.0619C88.6464 61.8793 88.8244 58.7795 90.7571 56.8057Z" fill="white"/>
<path d="M123.075 7.03264L119.012 6.3042C119.288 6.52002 119.433 6.88227 119.35 7.24883L111.653 41.437C110.798 45.2324 108.601 48.5909 105.465 50.893L89.5268 62.5938C89.719 63.1105 89.9905 63.6063 90.3449 64.0617C90.9338 64.8184 92.026 64.9559 92.7989 64.3883L109.938 51.8056C113.075 49.5033 115.272 46.1449 116.127 42.3496L123.824 8.16139C123.941 7.64052 123.601 7.12696 123.075 7.03264Z" fill="white"/>
<path d="M105.003 35.0926L103.288 44.6603C102.963 46.4744 101.229 47.6811 99.4145 47.356C97.6007 47.0307 96.3937 45.2967 96.719 43.4828L98.4343 33.9149L105.003 35.0926Z" fill="white"/>
<path d="M106.132 78.6713C111.189 81.2288 115.138 85.0331 115.138 91.4363V92.7694C115.138 93.7763 114.321 94.5938 113.314 94.5938H42.6862C41.6794 94.5938 40.8619 93.7763 40.8619 92.7694V91.4363C40.8619 79.0594 55.6069 76.3969 64.62 73.6669C65.595 73.3725 66.2625 72.4744 66.2625 71.4544V63.0844" stroke="#BA7894" stroke-width="3" stroke-miterlimit="10" stroke-linecap="round" stroke-linejoin="round"/>
<path d="M89.7375 63.0844V71.4544C89.7375 72.4744 90.405 73.3725 91.38 73.6669C93.9412 74.4432 96.9656 75.2138 99.9806 76.2019" stroke="#BA7894" stroke-width="3" stroke-miterlimit="10" stroke-linecap="round" stroke-linejoin="round"/>
<path d="M78 1.40612C91.6237 1.40612 103.007 10.9949 105.767 23.7917" stroke="#BA7894" stroke-width="3" stroke-miterlimit="10" stroke-linecap="round" stroke-linejoin="round"/>
<path d="M56.5312 28.8825C56.2425 29.7469 56.0137 30.6375 55.8544 31.5525" stroke="#BA7894" stroke-width="3" stroke-miterlimit="10" stroke-linecap="round" stroke-linejoin="round"/>
<path d="M66.8175 60.5981C70.8225 62.9381 75.0637 64.2769 78 64.2769C80.9381 64.2769 85.1775 62.9381 89.1825 60.6" stroke="#BA7894" stroke-width="3" stroke-miterlimit="10" stroke-linecap="round" stroke-linejoin="round"/>
<path d="M71.7338 16.2262C72.5925 16.1044 73.47 16.0425 74.3606 16.0425H81.6394C90.9 16.0425 98.5931 22.7381 100.146 31.5525" stroke="#BA7894" stroke-width="3" stroke-miterlimit="10" stroke-linecap="round" stroke-linejoin="round"/>
<path d="M56.5257 28.8953C59.9131 20.7658 81.8242 10.3695 94.1048 6.41158C89.5278 3.25577 83.9802 1.40627 77.9999 1.40627C73.2224 1.40627 68.7204 2.58564 64.769 4.66914" stroke="#BA7894" stroke-width="3" stroke-miterlimit="10" stroke-linecap="round" stroke-linejoin="round"/>
<path d="M57.3863 47.1055C58.7381 46.4867 59.5556 45.013 59.28 43.483L57.5663 33.9148L48.555 21.4761L45.7256 5.69047C45.6338 5.18047 45.1463 4.84109 44.6381 4.93297L32.925 7.03297C32.4 7.12672 32.0588 7.64047 32.175 8.16172L39.8738 42.3505C40.7269 46.1455 42.9263 49.5036 46.0613 51.8061L63.2006 64.3892C63.9731 64.9555 65.0662 64.8186 65.655 64.0611C67.3537 61.8786 67.1756 58.7792 65.2425 56.8048L57.8194 49.2242L57.3863 47.1055ZM57.3863 47.1055C57.1369 47.2198 56.8688 47.3061 56.5856 47.3567C54.7706 47.6811 53.0381 46.4736 52.7119 44.6605L50.9963 35.0923" stroke="#BA7894" stroke-width="3" stroke-miterlimit="10" stroke-linecap="round" stroke-linejoin="round"/>
<path d="M105.003 35.0928L103.288 44.6605C102.963 46.4746 101.229 47.6813 99.4146 47.3562C97.6007 47.0309 96.3937 45.2969 96.7191 43.483L98.4343 33.9151L107.445 21.4763L110.274 5.69071C110.366 5.18071 110.854 4.84134 111.362 4.93322L123.075 7.03321C123.6 7.12696 123.941 7.64072 123.825 8.16197L116.126 42.3507C115.273 46.1457 113.074 49.5038 109.939 51.8063L92.7994 64.3895C92.0269 64.9557 90.9337 64.8188 90.345 64.0613C88.6462 61.8788 88.8244 58.7795 90.7575 56.8051L98.1806 49.2245L98.6137 47.1057" stroke="#BA7894" stroke-width="3" stroke-miterlimit="10" stroke-linecap="round" stroke-linejoin="round"/>
<path d="M64.6658 36.7285C66.4831 35.6135 68.3003 35.6135 70.1177 36.7285" stroke="#BA7894" stroke-width="3" stroke-miterlimit="10" stroke-linecap="round" stroke-linejoin="round"/>
<path d="M85.8823 36.7285C87.6996 35.6135 89.5168 35.6135 91.3343 36.7285" stroke="#BA7894" stroke-width="3" stroke-miterlimit="10" stroke-linecap="round" stroke-linejoin="round"/>
<path d="M72.966 51.2124C76.1781 52.6024 79.8218 52.6024 83.0338 51.2124" stroke="#BA7894" stroke-width="3" stroke-miterlimit="10" stroke-linecap="round" stroke-linejoin="round"/>
<path d="M50.2332 23.7917C51.5438 17.7205 54.7932 12.3711 59.3044 8.42612" stroke="#BA7894" stroke-width="3" stroke-miterlimit="10" stroke-linecap="round" stroke-linejoin="round"/>
</g>
</g>
<defs>
<clipPath id="clip0_1_906">
<rect width="96" height="96" fill="white" transform="translate(30)"/>
</clipPath>
</defs>
</svg>
